<?xml version="1.0" encoding="UTF-8"?>
<!DOCTYPE svg PUBLIC "-//W3C//DTD SVG 1.1//EN" "http://www.w3.org/Graphics/SVG/1.1/DTD/svg11.dtd">
<svg xmlns="http://www.w3.org/2000/svg" version="1.1" width="1000px" height="250px" style="shape-rendering:geometricPrecision; text-rendering:geometricPrecision; image-rendering:optimizeQuality; fill-rule:evenodd; clip-rule:evenodd" xmlns:xlink="http://www.w3.org/1999/xlink">
<g><path style="opacity:1" fill="#1e1d1d" d="M -0.5,-0.5 C 332.833,-0.5 666.167,-0.5 999.5,-0.5C 999.5,82.8333 999.5,166.167 999.5,249.5C 666.167,249.5 332.833,249.5 -0.5,249.5C -0.5,166.167 -0.5,82.8333 -0.5,-0.5 Z"/></g>
<g><path style="opacity:1" fill="#dbdad9" d="M 179.5,43.5 C 182.815,44.3288 186.148,45.1621 189.5,46C 190.428,46.3879 191.095,47.0546 191.5,48C 190.419,49.3707 189.585,50.8707 189,52.5C 188.718,56.4882 187.885,60.3215 186.5,64C 196.568,63.6337 206.568,62.4671 216.5,60.5C 216.67,62.8484 217.003,65.1817 217.5,67.5C 217.291,68.9945 216.624,70.1612 215.5,71C 205.171,72.2773 194.838,73.444 184.5,74.5C 182.491,83.5258 180.657,92.5258 179,101.5C 193.366,93.21 208.533,91.3766 224.5,96C 236.409,102.324 240.909,112.157 238,125.5C 235.95,130.545 232.784,134.712 228.5,138C 222.905,141.198 216.905,143.198 210.5,144C 202.53,145.022 194.53,145.522 186.5,145.5C 186.312,141.936 185.312,138.603 183.5,135.5C 192.513,134.766 201.513,133.933 210.5,133C 225.09,131.311 230.257,123.477 226,109.5C 223.519,105.686 220.019,103.519 215.5,103C 205.36,101.968 195.694,103.634 186.5,108C 180.833,112.167 175.167,116.333 169.5,120.5C 166.65,118.573 163.983,116.406 161.5,114C 162.88,112.075 164.38,110.241 166,108.5C 169.853,97.9198 172.687,87.0864 174.5,76C 166.863,76.2619 159.197,76.4286 151.5,76.5C 151.167,73.1667 150.833,69.8333 150.5,66.5C 157.508,66.6663 164.508,66.4996 171.5,66C 173.256,65.7978 174.922,65.2978 176.5,64.5C 177.965,57.5754 178.965,50.5754 179.5,43.5 Z"/></g>
<g><path style="opacity:1" fill="#dbdbdb" d="M 323.5,69.5 C 324.5,69.5 325.5,69.5 326.5,69.5C 326.819,64.6367 326.486,59.97 325.5,55.5C 325.167,52.1667 324.833,48.8333 324.5,45.5C 328.767,45.203 332.934,45.5363 337,46.5C 336.656,48.2576 336.156,50.0909 335.5,52C 336.378,57.4632 336.712,62.9632 336.5,68.5C 344.809,67.7119 353.142,67.3786 361.5,67.5C 361.5,70.8333 361.5,74.1667 361.5,77.5C 353.5,77.5 345.5,77.5 337.5,77.5C 337.333,89.5046 337.5,101.505 338,113.5C 347.532,117.347 356.365,122.347 364.5,128.5C 362.853,131.473 360.853,134.14 358.5,136.5C 352.165,131.997 345.498,127.997 338.5,124.5C 333.833,141.004 323.167,146.837 306.5,142C 296.743,137.654 292.909,130.154 295,119.5C 297.72,114.449 301.887,111.282 307.5,110C 314.203,109.287 320.87,109.454 327.5,110.5C 327.5,99.8333 327.5,89.1667 327.5,78.5C 315.873,79.6973 304.206,80.364 292.5,80.5C 292.5,77.1667 292.5,73.8333 292.5,70.5C 302.826,69.9819 313.159,69.6486 323.5,69.5 Z"/></g>
<g><path style="opacity:1" fill="#dfdfde" d="M 788.5,144.5 C 785.167,144.5 781.833,144.5 778.5,144.5C 778.832,126.089 778.499,108.423 777.5,91.5C 765.631,99.6928 753.131,107.026 740,113.5C 737.049,110.428 734.216,107.261 731.5,104C 762.246,91.909 787.079,72.409 806,45.5C 809.647,48.3128 813.147,51.3128 816.5,54.5C 807.286,63.2122 798.119,72.2122 789,81.5C 788.5,102.497 788.333,123.497 788.5,144.5 Z"/></g>
<g><path style="opacity:1" fill="#dad9d9" d="M 716.5,75.5 C 716.5,78.8333 716.5,82.1667 716.5,85.5C 707.5,85.5 698.5,85.5 689.5,85.5C 689.5,90.5 689.5,95.5 689.5,100.5C 688.229,113.875 682.562,125.042 672.5,134C 666.412,138.463 659.912,142.297 653,145.5C 650.872,142.37 648.372,139.537 645.5,137C 670.017,128.986 681.017,112.152 678.5,86.5C 668.5,86.5 658.5,86.5 648.5,86.5C 648.5,94.5 648.5,102.5 648.5,110.5C 644.894,110.789 641.394,110.456 638,109.5C 637.5,101.841 637.334,94.1739 637.5,86.5C 628.833,86.5 620.167,86.5 611.5,86.5C 611.5,82.8333 611.5,79.1667 611.5,75.5C 620.167,75.5 628.833,75.5 637.5,75.5C 637.5,67.1667 637.5,58.8333 637.5,50.5C 641.437,50.2065 645.27,50.5399 649,51.5C 648.6,59.4407 648.433,67.4407 648.5,75.5C 658.5,75.5 668.5,75.5 678.5,75.5C 678.5,65.8333 678.5,56.1667 678.5,46.5C 682.182,46.3347 685.848,46.5014 689.5,47C 691.985,48.2227 692.152,49.7227 690,51.5C 689.5,59.4931 689.334,67.4931 689.5,75.5C 698.5,75.5 707.5,75.5 716.5,75.5 Z"/></g>
<g><path style="opacity:1" fill="#dfddda" d="M 838.5,48.5 C 843.032,48.0692 847.365,48.5692 851.5,50C 851,50.5 850.5,51 850,51.5C 849.5,61.828 849.334,72.1613 849.5,82.5C 858.124,84.0974 866.457,86.5974 874.5,90C 882.003,92.657 889.003,96.157 895.5,100.5C 893.867,103.96 892.034,107.294 890,110.5C 877.239,103.469 863.906,97.8025 850,93.5C 849.5,109.83 849.333,126.163 849.5,142.5C 845.833,142.5 842.167,142.5 838.5,142.5C 838.5,111.167 838.5,79.8333 838.5,48.5 Z"/></g>
<g><path style="opacity:1" fill="#dad8d7" d="M 269.5,49.5 C 273.188,49.7811 276.855,50.2811 280.5,51C 283.028,52.3159 283.028,53.4826 280.5,54.5C 278.076,62.2826 276.576,70.2826 276,78.5C 275.422,98.5233 275.422,118.523 276,138.5C 272.786,140.483 269.453,140.816 266,139.5C 263.399,109.321 264.566,79.3206 269.5,49.5 Z"/></g>
<g><path style="opacity:1" fill="#dedcdb" d="M 539.5,52.5 C 567.091,49.6368 584.925,61.3035 593,87.5C 595.257,105.557 589.424,120.39 575.5,132C 569.577,135.88 563.41,139.38 557,142.5C 553.833,139.333 550.667,136.167 547.5,133C 555.122,129.523 562.455,125.523 569.5,121C 580.897,111.139 584.397,98.9724 580,84.5C 572.597,67.8764 559.764,60.7097 541.5,63C 545.194,64.5088 548.527,66.5088 551.5,69C 551.07,70.4341 550.236,71.6008 549,72.5C 547.155,92.9031 541.155,111.903 531,129.5C 518.05,140.099 507.383,138.099 499,123.5C 489.104,96.9126 495.938,75.746 519.5,60C 525.878,56.3787 532.545,53.8787 539.5,52.5 Z"/></g>
<g><path style="opacity:1" fill="#dadada" d="M 45.5,53.5 C 50.365,53.4606 54.6984,54.7939 58.5,57.5C 56.0159,60.2936 54.8493,63.6269 55,67.5C 54.1587,83.1966 54.492,98.8633 56,114.5C 56.3953,118.019 57.3953,121.352 59,124.5C 62.0426,126.908 65.2093,127.074 68.5,125C 71.8956,119.708 74.8956,114.208 77.5,108.5C 80.8103,110.482 83.8103,112.815 86.5,115.5C 83.118,124.781 77.4513,132.281 69.5,138C 58.4545,140.227 50.9545,136.06 47,125.5C 42.8821,101.594 42.3821,77.5936 45.5,53.5 Z"/></g>
<g><path style="opacity:1" fill="#dadada" d="M 382.5,53.5 C 387.365,53.4606 391.698,54.7939 395.5,57.5C 393.016,60.2936 391.849,63.6269 392,67.5C 391.159,83.1966 391.492,98.8633 393,114.5C 393.395,118.019 394.395,121.352 396,124.5C 399.043,126.908 402.209,127.074 405.5,125C 408.896,119.708 411.896,114.208 414.5,108.5C 417.81,110.482 420.81,112.815 423.5,115.5C 420.118,124.781 414.451,132.281 406.5,138C 395.454,140.227 387.954,136.06 384,125.5C 379.882,101.594 379.382,77.5936 382.5,53.5 Z"/></g>
<g><path style="opacity:1" fill="#dedddb" d="M 113.5,59.5 C 127.403,73.3013 136.07,89.9679 139.5,109.5C 139.351,111.32 138.684,112.82 137.5,114C 134.266,114.711 131.099,115.545 128,116.5C 124.86,97.2362 117.026,80.2362 104.5,65.5C 107.738,63.7247 110.738,61.7247 113.5,59.5 Z"/></g>
<g><path style="opacity:1" fill="#dedddb" d="M 450.5,59.5 C 464.403,73.3013 473.07,89.9679 476.5,109.5C 476.351,111.32 475.684,112.82 474.5,114C 471.266,114.711 468.099,115.545 465,116.5C 461.86,97.2362 454.026,80.2362 441.5,65.5C 444.738,63.7247 447.738,61.7247 450.5,59.5 Z"/></g>
<g><path style="opacity:1" fill="#426392" d="M 325.5,55.5 C 326.486,59.97 326.819,64.6367 326.5,69.5C 325.5,69.5 324.5,69.5 323.5,69.5C 325.348,65.1464 326.015,60.4797 325.5,55.5 Z"/></g>
<g><path style="opacity:1" fill="#1e1e1e" d="M 535.5,63.5 C 536.8,65.223 537.467,67.3897 537.5,70C 535.834,82.6607 533.334,95.1607 530,107.5C 527.846,113.659 524.346,118.826 519.5,123C 517.167,123.667 514.833,123.667 512.5,123C 505.793,115.07 503.626,105.904 506,95.5C 510.523,79.8144 520.357,69.1477 535.5,63.5 Z"/></g>
<g><path style="opacity:1" fill="#8e7663" d="M 716.5,75.5 C 717.482,78.9619 717.815,82.6286 717.5,86.5C 708.5,86.5 699.5,86.5 690.5,86.5C 690.819,91.3633 690.486,96.03 689.5,100.5C 689.5,95.5 689.5,90.5 689.5,85.5C 698.5,85.5 707.5,85.5 716.5,85.5C 716.5,82.1667 716.5,78.8333 716.5,75.5 Z"/></g>
<g><path style="opacity:1" fill="#6f9ecc" d="M 788.5,144.5 C 785.038,145.482 781.371,145.815 777.5,145.5C 777.5,127.5 777.5,109.5 777.5,91.5C 778.499,108.423 778.832,126.089 778.5,144.5C 781.833,144.5 785.167,144.5 788.5,144.5 Z"/></g>
<g><path style="opacity:1" fill="#dddad7" d="M 924.5,115.5 C 942.596,115.077 949.096,123.41 944,140.5C 937.759,148.815 929.926,150.648 920.5,146C 914.134,140.567 911.968,133.734 914,125.5C 916.738,121.26 920.238,117.926 924.5,115.5 Z"/></g>
<g><path style="opacity:1" fill="#201e1f" d="M 308.5,118.5 C 313.511,118.334 318.511,118.501 323.5,119C 325.478,119.481 326.811,120.647 327.5,122.5C 327.072,130.428 322.905,134.428 315,134.5C 306.66,134.503 302.994,130.503 304,122.5C 305.397,120.93 306.897,119.596 308.5,118.5 Z"/></g>
<g><path style="opacity:1" fill="#1d1d1e" d="M 925.5,121.5 C 935.826,120.661 940.659,125.328 940,135.5C 933.698,144.332 927.032,144.665 920,136.5C 918.087,129.97 919.92,124.97 925.5,121.5 Z"/></g>
<g><path style="opacity:1" fill="#f9f8f8" d="M 641.5,201.5 C 643.465,201.948 643.798,202.948 642.5,204.5C 641.614,203.675 641.281,202.675 641.5,201.5 Z"/></g>
<g><path style="opacity:1" fill="#335887" d="M 582.5,201.5 C 580.533,209.097 579.866,217.097 580.5,225.5C 579.507,217.35 579.174,209.017 579.5,200.5C 580.791,200.263 581.791,200.596 582.5,201.5 Z"/></g>
<g><path style="opacity:1" fill="#ebe8df" d="M 712.5,201.5 C 713.5,201.5 714.5,201.5 715.5,201.5C 715.5,202.5 715.5,203.5 715.5,204.5C 714.5,204.5 713.5,204.5 712.5,204.5C 712.5,203.5 712.5,202.5 712.5,201.5 Z"/></g>
<g><path style="opacity:1" fill="#f3eade" d="M 819.5,200.5 C 820.5,200.5 821.5,200.5 822.5,200.5C 822.736,203.226 821.903,205.559 820,207.5C 820.574,205.224 820.408,202.891 819.5,200.5 Z"/></g>
<g><path style="opacity:1" fill="#bf9a6c" d="M 895.5,201.5 C 896.209,200.596 897.209,200.263 898.5,200.5C 898.5,203.833 898.5,207.167 898.5,210.5C 898.11,207.203 897.11,204.203 895.5,201.5 Z"/></g>
<g><path style="opacity:1" fill="#ebe1d5" d="M 598.5,201.5 C 599.5,201.5 600.5,201.5 601.5,201.5C 601.5,202.5 601.5,203.5 601.5,204.5C 600.5,204.5 599.5,204.5 598.5,204.5C 598.5,203.5 598.5,202.5 598.5,201.5 Z"/></g>
<g><path style="opacity:1" fill="#ebe1d5" d="M 930.5,201.5 C 931.5,201.5 932.5,201.5 933.5,201.5C 933.5,202.5 933.5,203.5 933.5,204.5C 932.5,204.5 931.5,204.5 930.5,204.5C 930.5,203.5 930.5,202.5 930.5,201.5 Z"/></g>
<g><path style="opacity:1" fill="#cdcac8" d="M 552.5,201.5 C 554.5,201.5 556.5,201.5 558.5,201.5C 557.205,209.493 557.205,217.493 558.5,225.5C 556.5,225.5 554.5,225.5 552.5,225.5C 553.795,217.493 553.795,209.493 552.5,201.5 Z"/></g>
<g><path style="opacity:1" fill="#dad9d3" d="M 659.5,200.5 C 663.846,200.334 668.179,200.501 672.5,201C 677.224,203.435 678.724,207.269 677,212.5C 676.167,213.333 675.333,214.167 674.5,215C 670.514,215.499 666.514,215.666 662.5,215.5C 662.5,218.833 662.5,222.167 662.5,225.5C 661.5,225.5 660.5,225.5 659.5,225.5C 659.5,217.167 659.5,208.833 659.5,200.5 Z"/></g>
<g><path style="opacity:1" fill="#1f1e20" d="M 662.5,203.5 C 665.518,203.335 668.518,203.502 671.5,204C 674.917,206.321 675.25,208.988 672.5,212C 669.183,212.498 665.85,212.665 662.5,212.5C 662.5,209.5 662.5,206.5 662.5,203.5 Z"/></g>
<g><path style="opacity:1" fill="#dfdedb" d="M 791.5,200.5 C 797.794,199.302 801.794,201.636 803.5,207.5C 801.094,205.789 798.427,204.455 795.5,203.5C 791.501,203.641 790.168,205.474 791.5,209C 795.809,210.985 799.976,213.152 804,215.5C 804.979,222.196 801.979,225.529 795,225.5C 790.206,225.539 787.373,223.206 786.5,218.5C 787.325,217.614 788.325,217.281 789.5,217.5C 789.935,221.158 792.101,222.825 796,222.5C 801.281,222.26 802.448,220.093 799.5,216C 795.469,214.568 791.636,212.734 788,210.5C 786.755,206.235 787.922,202.902 791.5,200.5 Z"/></g>
<g><path style="opacity:1" fill="#e8e9e3" d="M 807.5,198.5 C 809.371,198.859 810.871,199.859 812,201.5C 817.379,211.142 816.212,219.809 808.5,227.5C 808.167,227.167 807.833,226.833 807.5,226.5C 813.087,221.314 814.92,214.981 813,207.5C 811.144,204.444 809.311,201.444 807.5,198.5 Z"/></g>
<g><path style="opacity:1" fill="#e7e4e1" d="M 582.5,201.5 C 582.335,204.85 582.502,208.183 583,211.5C 590.577,207.276 594.077,209.442 593.5,218C 593.167,220.5 592.833,223 592.5,225.5C 591.672,221.204 591.172,216.871 591,212.5C 587.117,210.995 584.45,212.329 583,216.5C 583.07,219.992 582.237,222.992 580.5,225.5C 579.866,217.097 580.533,209.097 582.5,201.5 Z"/></g>
<g><path style="opacity:1" fill="#d4d4d3" d="M 733.5,213.5 C 733.5,214.5 733.5,215.5 733.5,216.5C 729.833,216.5 726.167,216.5 722.5,216.5C 722.232,218.099 722.566,219.432 723.5,220.5C 724.312,221.993 725.645,222.66 727.5,222.5C 729.931,222.563 731.765,221.563 733,219.5C 734.4,221.906 733.567,223.739 730.5,225C 721.837,226 718.337,222.167 720,213.5C 722.602,209.788 726.102,208.622 730.5,210C 732.426,210.422 733.426,211.589 733.5,213.5 Z"/></g>
<g><path style="opacity:1" fill="#d4d4d3" d="M 963.5,213.5 C 963.5,214.5 963.5,215.5 963.5,216.5C 959.833,216.5 956.167,216.5 952.5,216.5C 952.232,218.099 952.566,219.432 953.5,220.5C 954.312,221.993 955.645,222.66 957.5,222.5C 959.931,222.563 961.765,221.563 963,219.5C 964.4,221.906 963.567,223.739 960.5,225C 951.837,226 948.337,222.167 950,213.5C 952.602,209.788 956.102,208.622 960.5,210C 962.426,210.422 963.426,211.589 963.5,213.5 Z"/></g>
<g><path style="opacity:1" fill="#e6f0f0" d="M 600.5,209.5 C 601.108,214.944 600.442,219.944 598.5,224.5C 597.892,219.056 598.558,214.056 600.5,209.5 Z"/></g>
<g><path style="opacity:1" fill="#c69f6f" d="M 600.5,209.5 C 601.488,214.64 601.821,219.974 601.5,225.5C 600.209,225.737 599.209,225.404 598.5,224.5C 600.442,219.944 601.108,214.944 600.5,209.5 Z"/></g>
<g><path style="opacity:1" fill="#5f89b3" d="M 641.5,209.5 C 640.892,214.944 641.558,219.944 643.5,224.5C 642.791,225.404 641.791,225.737 640.5,225.5C 640.179,219.974 640.512,214.64 641.5,209.5 Z"/></g>
<g><path style="opacity:1" fill="#eff0f1" d="M 641.5,209.5 C 643.442,214.056 644.108,219.056 643.5,224.5C 641.558,219.944 640.892,214.944 641.5,209.5 Z"/></g>
<g><path style="opacity:1" fill="#dfded6" d="M 712.5,209.5 C 713.5,209.5 714.5,209.5 715.5,209.5C 715.666,215.509 715.499,221.509 715,227.5C 711.793,231.191 708.626,231.358 705.5,228C 705.667,227.5 705.833,227 706,226.5C 708,227.833 710,227.833 712,226.5C 712.499,220.843 712.666,215.176 712.5,209.5 Z"/></g>
<g><path style="opacity:1" fill="#e6f0f0" d="M 932.5,209.5 C 933.108,214.944 932.442,219.944 930.5,224.5C 929.892,219.056 930.558,214.056 932.5,209.5 Z"/></g>
<g><path style="opacity:1" fill="#c69f6f" d="M 932.5,209.5 C 933.488,214.64 933.821,219.974 933.5,225.5C 932.209,225.737 931.209,225.404 930.5,224.5C 932.442,219.944 933.108,214.944 932.5,209.5 Z"/></g>
<g><path style="opacity:1" fill="#e3e5e1" d="M 653.5,197.5 C 654.478,197.811 655.145,198.478 655.5,199.5C 649.913,204.686 648.08,211.019 650,218.5C 650.93,221.362 652.597,223.695 655,225.5C 655.688,226.332 655.521,226.998 654.5,227.5C 647.934,222.007 645.767,215.007 648,206.5C 649.844,203.472 651.678,200.472 653.5,197.5 Z"/></g>
<g><path style="opacity:1" fill="#d6dbe0" d="M 938.5,203.5 C 939.5,203.5 940.5,203.5 941.5,203.5C 941.5,205.5 941.5,207.5 941.5,209.5C 948.167,210.167 948.167,210.833 941.5,211.5C 941.335,214.85 941.502,218.183 942,221.5C 943.825,222.103 945.659,222.77 947.5,223.5C 944.329,226.335 941.496,226.002 939,222.5C 938.501,218.848 938.335,215.182 938.5,211.5C 934.5,210.833 934.5,210.167 938.5,209.5C 938.5,207.5 938.5,205.5 938.5,203.5 Z"/></g>
<g><path style="opacity:1" fill="#eaedea" d="M 767.5,211.5 C 772.875,211.172 778.208,211.505 783.5,212.5C 780.833,212.833 778.167,213.167 775.5,213.5C 772.41,213.478 769.743,212.812 767.5,211.5 Z"/></g>
<g><path style="opacity:1" fill="#dbded9" d="M 605.5,200.5 C 606.5,200.5 607.5,200.5 608.5,200.5C 608.335,204.182 608.501,207.848 609,211.5C 612.333,208.833 615.667,208.833 619,211.5C 619.499,216.155 619.666,220.821 619.5,225.5C 618.5,225.5 617.5,225.5 616.5,225.5C 616.666,221.154 616.499,216.821 616,212.5C 613.119,210.972 610.786,211.638 609,214.5C 608.501,218.152 608.335,221.818 608.5,225.5C 607.5,225.5 606.5,225.5 605.5,225.5C 605.5,217.167 605.5,208.833 605.5,200.5 Z"/></g>
<g><path style="opacity:1" fill="#e0e0dd" d="M 681.5,209.5 C 682.931,209.881 683.764,210.881 684,212.5C 685.995,210.253 688.495,209.253 691.5,209.5C 691.5,210.5 691.5,211.5 691.5,212.5C 688.956,212.104 686.789,212.771 685,214.5C 683.986,218.099 683.153,221.765 682.5,225.5C 681.505,220.208 681.172,214.875 681.5,209.5 Z"/></g>
<g><path style="opacity:1" fill="#171414" d="M 725.5,211.5 C 727.665,211.116 729.332,211.783 730.5,213.5C 728.167,214.833 725.833,214.833 723.5,213.5C 724.243,212.818 724.909,212.151 725.5,211.5 Z"/></g>
<g><path style="opacity:1" fill="#171414" d="M 955.5,211.5 C 957.665,211.116 959.332,211.783 960.5,213.5C 958.167,214.833 955.833,214.833 953.5,213.5C 954.243,212.818 954.909,212.151 955.5,211.5 Z"/></g>
<g><path style="opacity:1" fill="#dddddb" d="M 880.5,209.5 C 887.67,207.694 891.337,210.36 891.5,217.5C 887.833,217.5 884.167,217.5 880.5,217.5C 880.418,220.585 881.918,222.252 885,222.5C 887.17,221.478 889.336,220.478 891.5,219.5C 891.703,221.39 891.037,222.89 889.5,224C 882.526,227.178 878.526,225.012 877.5,217.5C 877.4,214.376 878.4,211.71 880.5,209.5 Z"/></g>
<g><path style="opacity:1" fill="#141315" d="M 888.5,214.5 C 885.941,214.802 883.607,214.468 881.5,213.5C 884.148,210.738 886.481,211.071 888.5,214.5 Z"/></g>
<g><path style="opacity:1" fill="#7a7374" d="M 881.5,213.5 C 883.607,214.468 885.941,214.802 888.5,214.5C 885.976,215.8 883.309,215.8 880.5,214.5C 880.624,213.893 880.957,213.56 881.5,213.5 Z"/></g>
<g><path style="opacity:1" fill="#d9d8d7" d="M 626.5,209.5 C 630.007,208.994 633.174,209.66 636,211.5C 636.197,216.086 636.697,220.586 637.5,225C 635.567,225.783 634.067,225.283 633,223.5C 629.381,226.343 626.048,226.01 623,222.5C 622.376,220.536 622.876,218.869 624.5,217.5C 627.632,216.275 630.632,214.942 633.5,213.5C 633,212.119 632,211.453 630.5,211.5C 628.315,211.852 626.481,212.852 625,214.5C 624.5,214.167 624,213.833 623.5,213.5C 624.524,212.148 625.524,210.815 626.5,209.5 Z"/></g>
<g><path style="opacity:1" fill="#ddd7d0" d="M 696.5,209.5 C 708.067,209.212 711.067,214.046 705.5,224C 696.39,226.563 692.556,223.063 694,213.5C 694.662,212.016 695.496,210.683 696.5,209.5 Z"/></g>
<g><path style="opacity:1" fill="#1f1f22" d="M 698.5,211.5 C 705.575,212.327 707.242,215.827 703.5,222C 696.999,222.812 694.832,219.979 697,213.5C 697.717,212.956 698.217,212.289 698.5,211.5 Z"/></g>
<g><path style="opacity:1" fill="#a69383" d="M 733.5,213.5 C 734.434,214.568 734.768,215.901 734.5,217.5C 730.833,217.5 727.167,217.5 723.5,217.5C 723.5,218.5 723.5,219.5 723.5,220.5C 722.566,219.432 722.232,218.099 722.5,216.5C 726.167,216.5 729.833,216.5 733.5,216.5C 733.5,215.5 733.5,214.5 733.5,213.5 Z"/></g>
<g><path style="opacity:1" fill="#dad9d6" d="M 828.5,209.5 C 832.007,208.994 835.174,209.66 838,211.5C 838.688,212.332 838.521,212.998 837.5,213.5C 834.712,210.925 832.045,210.925 829.5,213.5C 832.418,215.59 835.585,217.257 839,218.5C 838.994,224.805 835.828,226.971 829.5,225C 828.667,224.167 827.833,223.333 827,222.5C 826.409,221.517 826.743,220.85 828,220.5C 830.993,223.147 833.826,223.147 836.5,220.5C 833.147,219.202 829.98,217.535 827,215.5C 826.252,213.16 826.752,211.16 828.5,209.5 Z"/></g>
<g><path style="opacity:1" fill="#dad9d6" d="M 915.5,209.5 C 919.007,208.994 922.174,209.66 925,211.5C 925.688,212.332 925.521,212.998 924.5,213.5C 921.712,210.925 919.045,210.925 916.5,213.5C 919.418,215.59 922.585,217.257 926,218.5C 925.994,224.805 922.828,226.971 916.5,225C 915.667,224.167 914.833,223.333 914,222.5C 913.409,221.517 913.743,220.85 915,220.5C 917.993,223.147 920.826,223.147 923.5,220.5C 920.147,219.202 916.98,217.535 914,215.5C 913.252,213.16 913.752,211.16 915.5,209.5 Z"/></g>
<g><path style="opacity:1" fill="#a69383" d="M 963.5,213.5 C 964.434,214.568 964.768,215.901 964.5,217.5C 960.833,217.5 957.167,217.5 953.5,217.5C 953.5,218.5 953.5,219.5 953.5,220.5C 952.566,219.432 952.232,218.099 952.5,216.5C 956.167,216.5 959.833,216.5 963.5,216.5C 963.5,215.5 963.5,214.5 963.5,213.5 Z"/></g>
<g><path style="opacity:1" fill="#150d0f" d="M 630.5,217.5 C 631.5,217.5 632.5,217.5 633.5,217.5C 633.582,220.585 632.082,222.252 629,222.5C 627.338,222.612 626.171,221.946 625.5,220.5C 626.947,219.065 628.614,218.065 630.5,217.5 Z"/></g>
<g><path style="opacity:1" fill="#dbdbdb" d="M 565.5,209.5 C 568.93,209.107 572.096,209.773 575,211.5C 575.483,212.448 575.649,213.448 575.5,214.5C 573.332,213.821 571.332,212.821 569.5,211.5C 564.208,213.735 563.208,217.235 566.5,222C 568.5,222.667 570.5,222.667 572.5,222C 573.337,220.989 573.67,219.822 573.5,218.5C 574.5,218.5 575.5,218.5 576.5,218.5C 575.031,225.385 571.031,227.219 564.5,224C 560.268,218.809 560.601,213.975 565.5,209.5 Z"/></g>
<g><path style="opacity:1" fill="#dbdbdb" d="M 741.5,209.5 C 744.93,209.107 748.096,209.773 751,211.5C 751.483,212.448 751.649,213.448 751.5,214.5C 749.332,213.821 747.332,212.821 745.5,211.5C 740.208,213.735 739.208,217.235 742.5,222C 744.5,222.667 746.5,222.667 748.5,222C 749.337,220.989 749.67,219.822 749.5,218.5C 750.5,218.5 751.5,218.5 752.5,218.5C 751.031,225.385 747.031,227.219 740.5,224C 736.268,218.809 736.601,213.975 741.5,209.5 Z"/></g>
<g><path style="opacity:1" fill="#e2ddd7" d="M 852.5,210.5 C 853.386,209.224 854.386,209.224 855.5,210.5C 856.854,213.769 858.02,217.102 859,220.5C 860.31,216.93 861.143,213.263 861.5,209.5C 862.833,209.5 864.167,209.5 865.5,209.5C 866.074,213.325 867.241,216.991 869,220.5C 870.31,216.93 871.143,213.263 871.5,209.5C 872.5,209.5 873.5,209.5 874.5,209.5C 873.039,214.805 871.706,220.138 870.5,225.5C 869.325,225.719 868.325,225.386 867.5,224.5C 866.436,220.808 865.269,217.141 864,213.5C 862.523,217.43 861.356,221.43 860.5,225.5C 859.325,225.719 858.325,225.386 857.5,224.5C 855.816,219.719 854.149,215.052 852.5,210.5 Z"/></g>
<g><path style="opacity:1" fill="#e0ddd8" d="M 895.5,201.5 C 897.11,204.203 898.11,207.203 898.5,210.5C 902.485,207.697 905.985,208.364 909,212.5C 910.494,217.526 909.327,221.692 905.5,225C 902.018,225 898.684,225.167 895.5,225.5C 895.5,217.5 895.5,209.5 895.5,201.5 Z"/></g>
<g><path style="opacity:1" fill="#1b1b1f" d="M 900.5,211.5 C 906.156,211.867 907.989,214.867 906,220.5C 903.667,223.167 901.333,223.167 899,220.5C 898.068,217.177 898.568,214.177 900.5,211.5 Z"/></g>
<g><path style="opacity:1" fill="#ddd5ce" d="M 757.5,203.5 C 758.5,203.5 759.5,203.5 760.5,203.5C 760.5,205.5 760.5,207.5 760.5,209.5C 767.167,210.167 767.167,210.833 760.5,211.5C 760.5,215.167 760.5,218.833 760.5,222.5C 762.604,222.201 764.604,222.534 766.5,223.5C 763.748,226.134 760.915,226.134 758,223.5C 757.501,219.514 757.334,215.514 757.5,211.5C 753.5,210.833 753.5,210.167 757.5,209.5C 757.5,207.5 757.5,205.5 757.5,203.5 Z"/></g>
</svg>
